HIERARCHY
ROOT Pelvis
{
	OFFSET -0.217368 -24.078917 2.858379
	CHANNELS 6 Xposition Yposition Zposition Zrotation Yrotation Xrotation 
	JOINT Left_hip
	{
		OFFSET 5.858135 -8.228005 -1.766408
		CHANNELS 3 Zrotation Yrotation Xrotation
		JOINT Left_knee
		{
			OFFSET 4.345143 -38.646942 0.803700
			CHANNELS 3 Zrotation Yrotation Xrotation
			JOINT Left_ankle
			{
				OFFSET -1.479033 -42.687447 -3.742800
				CHANNELS 3 Zrotation Yrotation Xrotation
				JOINT Left_foot
				{
					OFFSET 4.105436 -6.028605 12.204244
					CHANNELS 3 Zrotation Yrotation Xrotation
					End Site
					{
						OFFSET 0.000000 0.000000 0.000000
					}
				}
			}
		}
	}
	JOINT Right_hip
	{
		OFFSET -6.030973 -9.051328 -1.354253
		CHANNELS 3 Zrotation Yrotation Xrotation
		JOINT Right_knee
		{
			OFFSET -4.325663 -38.368790 -0.484304
			CHANNELS 3 Zrotation Yrotation Xrotation
			JOINT Right_ankle
			{
				OFFSET 1.905555 -42.004566 -3.456167
				CHANNELS 3 Zrotation Yrotation Xrotation
				JOINT Right_foot
				{
					OFFSET -3.483987 -6.210554 13.032330
					CHANNELS 3 Zrotation Yrotation Xrotation
					End Site
					{
						OFFSET 0.000000 0.000000 0.000000
					}
				}
			}
		}
	}
	JOINT Spine1
	{
		OFFSET 0.443945 12.440353 -3.838522
		CHANNELS 3 Zrotation Yrotation Xrotation
		JOINT Spine2
		{
			OFFSET 0.448844 13.795640 2.682033
			CHANNELS 3 Zrotation Yrotation Xrotation
			JOINT Spine3
			{
				OFFSET -0.226460 5.603239 0.285504
				CHANNELS 3 Zrotation Yrotation Xrotation
				JOINT Neck
				{
					OFFSET -1.339018 21.163553 -3.346758
					CHANNELS 3 Zrotation Yrotation Xrotation
					JOINT Head
					{
						OFFSET 1.011321 8.893734 5.040987
						CHANNELS 3 Zrotation Yrotation Xrotation
						End Site
						{
							OFFSET 0.000000 0.000000 0.000000
						}
					}
				}
				JOINT Left_collar
				{
					OFFSET 7.170247 11.399971 -1.889817
					CHANNELS 3 Zrotation Yrotation Xrotation
					JOINT Left_shoulder
					{
						OFFSET 12.292140 4.520507 -1.904600
						CHANNELS 3 Zrotation Yrotation Xrotation
						JOINT Left_elbow
						{
							OFFSET 25.533188 -1.564902 -2.294648
							CHANNELS 3 Zrotation Yrotation Xrotation
							JOINT Left_wrist
							{
								OFFSET 26.570929 1.269810 -0.737473
								CHANNELS 3 Zrotation Yrotation Xrotation
								JOINT Left_palm
								{
									OFFSET 8.669054 -1.063602 -1.559429
									CHANNELS 3 Zrotation Yrotation Xrotation
									End Site
									{
										OFFSET 0.000000 0.000000 0.000000
									}
								}
							}
						}
					}
				}
				JOINT Right_collar
				{
					OFFSET -8.295364 11.247234 -2.370738
					CHANNELS 3 Zrotation Yrotation Xrotation
					JOINT Right_shoulder
					{
						OFFSET -11.322830 4.685326 -0.847207
						CHANNELS 3 Zrotation Yrotation Xrotation
						JOINT Right_elbow
						{
							OFFSET -26.012751 -1.436928 -3.126872
							CHANNELS 3 Zrotation Yrotation Xrotation
							JOINT Right_wrist
							{
								OFFSET -26.910841 0.679372 -0.602677
								CHANNELS 3 Zrotation Yrotation Xrotation
								JOINT Right_palm
								{
									OFFSET -8.875370 -0.865157 -1.010708
									CHANNELS 3 Zrotation Yrotation Xrotation
									End Site
									{
										OFFSET 0.000000 0.000000 0.000000
									}
								}
							}
						}
					}
				}
			}
		}
	}
}
MOTION
Frames: 8
Frame Time: 0.016667
-0.217368 71.386078 2.858379 -1.388473 -5.199515 0.879109 2.670274 -1.482925 -21.154567 -5.550260 1.685508 61.191857 6.363046 13.715215 3.274146 0.000000 0.000000 0.000000 4.784028 -0.480443 2.585133 -0.829798 0.588332 10.510234 0.715197 3.108977 -2.096439 0.000000 0.000000 0.000000 5.984394 -0.617179 6.092808 -2.691230 1.283113 -16.355364 -0.245042 10.153487 20.801139 7.634314 -4.720873 -7.441726 0.000000 0.000000 0.000000 -14.515426 -1.646800 -0.696245 -57.820506 8.157782 -10.421507 -14.473616 -43.077202 7.344148 0.000000 0.000000 0.000000 0.000000 0.000000 0.000000 19.870203 -3.733845 -4.052202 58.431360 2.095800 -4.224014 10.992057 54.614518 7.353313 0.000000 0.000000 0.000000 0.000000 0.000000 0.000000 
-0.483163 71.028038 6.781871 -1.342680 -6.599017 1.846366 1.639198 -2.288944 -28.932084 -5.137650 1.385921 61.748517 6.703402 13.727590 -1.096418 0.000000 0.000000 0.000000 4.873480 -0.877658 5.320417 -1.426715 0.618720 8.845425 1.014179 4.756073 -3.320230 0.000000 0.000000 0.000000 4.569063 -0.565021 6.529167 -2.572458 1.245271 -15.585368 2.367824 12.951296 19.302584 6.054695 -3.501259 -8.236767 0.000000 0.000000 0.000000 -14.176707 0.301929 -1.598481 -56.990894 13.218847 -12.598032 -22.056168 -41.291475 9.929644 0.000000 0.000000 0.000000 0.000000 0.000000 0.000000 19.398569 -1.872552 -2.980355 55.232245 5.906258 -2.222482 11.439924 58.586124 8.264587 0.000000 0.000000 0.000000 0.000000 0.000000 0.000000 
-0.672164 70.458275 11.017558 0.113880 -9.924488 2.231257 0.670402 -3.187122 -36.085869 -5.314067 1.464328 58.918948 6.792613 14.645671 4.312516 0.000000 0.000000 0.000000 2.529009 -1.232703 9.544198 -2.123172 0.531532 5.205763 1.605653 6.965925 -4.018830 0.000000 0.000000 0.000000 3.198653 -0.523093 7.223566 -3.130006 1.424236 -15.677479 2.356626 15.961795 19.331381 8.043011 -4.777826 -8.739936 0.000000 0.000000 0.000000 -14.561588 1.003688 -1.979393 -54.326437 15.304211 -12.807478 -22.652777 -39.635713 9.716408 0.000000 0.000000 0.000000 0.000000 0.000000 0.000000 20.041859 0.983617 -1.502895 53.395902 13.712652 1.324321 8.216438 63.189744 7.138202 0.000000 0.000000 0.000000 0.000000 0.000000 0.000000 
-0.856678 69.651573 15.536834 0.902630 -11.993299 2.853240 0.828925 -3.371890 -38.611302 -5.085693 1.122414 47.119633 5.950542 13.313342 5.640077 0.000000 0.000000 0.000000 1.355460 -1.406034 12.187993 -2.975332 0.536813 3.330368 2.091572 8.435601 -4.087732 0.000000 0.000000 0.000000 2.979260 -0.572892 8.199365 -4.758430 1.919922 -16.999061 2.932413 19.643420 20.079038 11.491310 -6.404369 -12.146061 0.000000 0.000000 0.000000 -13.248935 0.951981 -1.799668 -53.823522 16.023298 -12.976729 -20.750150 -40.146616 9.135011 0.000000 0.000000 0.000000 0.000000 0.000000 0.000000 21.137569 0.161027 -2.073413 53.901670 19.237352 3.891752 -0.345092 65.996598 2.086225 0.000000 0.000000 0.000000 0.000000 0.000000 0.000000 
-0.998244 68.975578 20.608482 2.149604 -12.855218 3.647132 0.553102 -3.613856 -40.145989 -6.230950 1.500691 36.455036 5.339172 12.745504 8.811664 0.000000 0.000000 0.000000 -0.324145 -1.250728 12.851364 -4.071029 0.810800 4.963871 2.532717 10.615934 -5.107003 0.000000 0.000000 0.000000 1.649495 -0.454655 7.988903 -5.720114 2.235149 -16.361923 3.791359 20.950596 19.493643 12.152226 -6.635474 -13.038631 0.000000 0.000000 0.000000 -11.616761 0.130601 -1.239175 -53.586231 15.700793 -12.769919 -21.156555 -39.477395 9.118755 0.000000 0.000000 0.000000 0.000000 0.000000 0.000000 19.776630 1.430838 -1.232523 52.885351 23.985017 5.968436 -7.554071 66.615113 -2.535396 0.000000 0.000000 0.000000 0.000000 0.000000 0.000000 
-1.095766 68.561127 26.611692 2.347372 -14.470237 4.419164 -0.486883 -3.852848 -38.934227 -6.383689 1.453023 31.955302 4.703778 11.884165 9.980514 0.000000 0.000000 0.000000 -1.937072 -1.036247 12.930146 -4.186633 1.176964 9.429886 4.445234 13.568658 -2.239080 0.000000 0.000000 0.000000 1.177101 -0.264826 5.002309 -6.069149 2.499893 -11.708080 3.325944 22.309772 16.112051 10.856446 -5.980223 -12.225372 0.000000 0.000000 0.000000 -11.436032 -1.281443 -0.584622 -53.642798 15.265110 -12.598529 -19.128924 -39.471033 8.369310 0.000000 0.000000 0.000000 0.000000 0.000000 0.000000 18.591088 3.544010 0.006607 53.341346 23.921271 6.009147 -7.936471 69.840790 -2.969587 0.000000 0.000000 0.000000 0.000000 0.000000 0.000000 
-1.153695 68.668396 33.548309 1.615893 -15.666241 5.373081 -1.865846 -3.804575 -34.539536 -5.848398 1.199756 30.240599 6.528920 14.555903 7.370671 0.000000 0.000000 0.000000 -0.981591 -0.999384 11.117017 -6.676023 2.411173 16.804758 6.962564 14.394860 4.231738 0.000000 0.000000 0.000000 1.303359 -0.136780 2.421852 -6.283675 2.638505 -10.004739 3.450329 22.531987 14.857278 10.213928 -5.823408 -10.924634 0.000000 0.000000 0.000000 -12.422280 -1.251345 -0.689991 -52.843816 17.017529 -13.115625 -17.613792 -40.495871 8.036272 0.000000 0.000000 0.000000 0.000000 0.000000 0.000000 18.462469 2.236510 -0.681123 56.209128 18.051428 3.551574 1.530920 75.870782 3.956468 0.000000 0.000000 0.000000 0.000000 0.000000 0.000000 
-1.213887 69.580505 40.834457 1.214372 -14.187154 5.807668 -4.928465 -4.020836 -29.654318 -4.195474 0.551218 29.799890 7.616611 16.246136 5.545219 0.000000 0.000000 0.000000 -0.940308 -0.420378 4.808874 -4.658124 3.117498 30.706724 7.478837 7.432825 15.707870 0.000000 0.000000 0.000000 0.574657 -0.062737 1.270167 -6.132489 2.546408 -11.019542 3.940694 18.646932 16.388571 9.827271 -5.413468 -11.739505 0.000000 0.000000 0.000000 -14.842122 -0.127811 -1.464287 -52.039362 16.488240 -12.659169 -17.156042 -40.271809 7.816358 0.000000 0.000000 0.000000 0.000000 0.000000 0.000000 18.875695 0.437388 -1.679692 58.353621 10.129647 -0.253239 35.288720 77.675604 31.433912 0.000000 0.000000 0.000000 0.000000 0.000000 0.000000 
